<?xml version="1.0" encoding="utf-8"?>
<!-- Generator: Adobe Illustrator 25.2.0, SVG Export Plug-In . SVG Version: 6.00 Build 0)  -->
<svg version="1.1" id="Component_122_1" xmlns="http://www.w3.org/2000/svg" xmlns:xlink="http://www.w3.org/1999/xlink" x="0px"
	 y="0px" viewBox="0 0 729.2 148.9" style="enable-background:new 0 0 729.2 148.9;" xml:space="preserve">
<style type="text/css">
	.st0{fill:none;}
	.st1{fill:#229022;}
	.st2{fill:#0A7533;}
	.st3{opacity:0.5;fill:#003300;enable-background:new    ;}
	.st4{fill:#0CB04A;}
	.st5{enable-background:new    ;}
</style>
<g id="Group_4945">
	<g id="Group_4940" transform="translate(0 0)">
		<g id="Group_4937">
			<g id="Group_4936">
				<path id="Path_4759" d="M0,66.6V5.2C0,4,0.5,2.8,1.4,2c0.9-0.9,2-1.4,3.2-1.4h9.2c1.3,0,2.5,0.5,3.4,1.4c0.9,0.9,1.3,2,1.3,3.2
					v61.2c0,1.2-0.5,2.4-1.4,3.2c-0.9,0.9-2,1.3-3.2,1.3H4.7c-1.2,0-2.4-0.4-3.2-1.3C0.5,68.9-0.1,67.8,0,66.6z"/>
				<path id="Path_4760" d="M32.6,66.4V5.2c0-1.2,0.4-2.4,1.3-3.2c0.8-0.9,2-1.4,3.2-1.4h14.4c1.3,0.1,2.6,0.6,3.6,1.4
					c1.2,0.9,2.3,2,3.1,3.2L88.1,51V5.1c-0.1-2.5,1.9-4.5,4.3-4.5c0.1,0,0.1,0,0.2,0h8.4c1.2,0,2.4,0.4,3.2,1.3
					c0.9,0.9,1.3,2.1,1.3,3.4v61.2c0.1,2.5-1.9,4.5-4.3,4.5c-0.1,0-0.1,0-0.2,0H84.9c-1.4,0-2.8-0.5-3.9-1.3c-1.3-0.9-2.4-2-3.2-3.2
					L50.6,24.3v42.2c0.1,2.5-1.9,4.5-4.3,4.5c-0.1,0-0.1,0-0.2,0h-8.6c-1.2,0-2.4-0.4-3.2-1.3C33.2,69,32.6,67.7,32.6,66.4z"/>
				<path id="Path_4761" d="M223.8,66.6V5.2c0-1.2,0.5-2.4,1.4-3.2c0.9-0.9,2-1.4,3.2-1.4h9.2c1.3,0,2.5,0.5,3.4,1.4
					c0.9,0.9,1.3,2,1.3,3.2v61.2c0,1.2-0.5,2.4-1.4,3.2c-0.9,0.9-2,1.3-3.2,1.3h-9.2c-1.2,0-2.4-0.4-3.2-1.3
					C224.3,68.9,223.8,67.8,223.8,66.6z"/>
				<path id="Path_4762" d="M256.6,66.4V5.2c0-1.2,0.4-2.4,1.3-3.2c0.8-0.9,2-1.4,3.2-1.4h14.4c1.3,0.1,2.6,0.6,3.6,1.4
					c1.2,0.9,2.3,2,3.1,3.2L312.1,51V5.1c-0.1-2.5,1.9-4.5,4.3-4.5c0.1,0,0.1,0,0.2,0h8.5c1.2,0,2.4,0.4,3.2,1.3
					c0.9,0.9,1.3,2.1,1.3,3.4v61.2c0.1,2.5-1.9,4.5-4.3,4.5c-0.1,0-0.1,0-0.2,0h-16.4c-1.4,0-2.8-0.5-3.9-1.3
					c-1.3-0.9-2.4-2-3.2-3.2l-27.2-42.2v42.2c0.1,2.5-1.9,4.5-4.3,4.5c-0.1,0-0.1,0-0.2,0h-8.6c-1.2,0-2.4-0.4-3.2-1.3
					C257,68.9,256.5,67.7,256.6,66.4z"/>
				<path id="Path_4763" d="M339.9,53c-0.2-1.6,0.5-3.1,1.7-4.2c1-0.8,2.1-1.2,3.4-1.3h5.8c3,0,5.2,1.6,6.8,4.8s4.9,4.8,10.4,4.8
					l17.3,0.4c5.7,0,8.6-1.9,8.6-5.7c0-2.9-3.5-5.1-10.5-6.8c-3.1-0.8-6.6-1.4-10.4-2.2s-7.5-1.7-11.3-2.9c-3.5-1.1-7-2.4-10.4-3.9
					c-3-1.5-5.6-3.6-7.7-6.2c-2-2.7-3.1-6-3-9.4c0-6.6,2.3-11.7,7-15.2c4.7-3.6,12.7-5.3,24.2-5.3l12.5,0.3
					c6.4-0.1,12.8,1.7,18.2,5.2c5.5,3.4,8.1,7.8,8.1,13c0.2,1.6-0.5,3.1-1.7,4.2c-0.9,0.7-2.1,1.2-3.2,1.3h-5.8
					c-3,0-5.2-1.6-6.8-4.8c-1.6-3.2-4.9-4.8-10.4-4.8L367.7,14c-5.7,0-8.6,2-8.6,5.7c0,2.1,1.8,3.8,5.5,5.1
					c4.3,1.5,8.8,2.6,13.3,3.4c5.2,1,10.4,2.2,15.6,3.6c4.9,1.3,9.5,3.7,13.4,6.9c3.5,3,5.5,7.4,5.5,12.1c0,6.6-2.3,11.7-7,15.2
					c-4.7,3.6-12.7,5.3-24.2,5.3l-14.9-0.3c-6.4,0.1-12.8-1.7-18.2-5.2C342.6,62.5,339.9,58.2,339.9,53z"/>
				<path id="Path_4764" d="M422.4,66.4V5.1c0-1.2,0.5-2.4,1.4-3.2c0.9-0.9,2-1.3,3.2-1.3h56.7c1.2,0,2.4,0.5,3.2,1.4
					c0.9,0.9,1.3,2,1.3,3.2v4.7c0.1,2.5-1.9,4.5-4.3,4.5c-0.1,0-0.1,0-0.2,0h-42.9v14.3h36.9c2.5-0.1,4.5,1.9,4.5,4.3
					c0,0.1,0,0.1,0,0.2V38c0.1,2.5-1.9,4.5-4.3,4.5c-0.1,0-0.1,0-0.2,0h-36.9v14.6h42.8c2.5-0.1,4.5,1.9,4.5,4.3c0,0.1,0,0.1,0,0.2
					v4.7c0,1.2-0.5,2.4-1.4,3.2c-0.9,0.9-2,1.3-3.2,1.3H427c-1.2,0-2.4-0.4-3.2-1.3C422.8,68.8,422.3,67.6,422.4,66.4z"/>
				<path id="Path_4765" d="M497.4,66.4V5.2c0-1.2,0.4-2.4,1.3-3.2c0.8-0.9,2-1.4,3.2-1.4h14.4c1.3,0.1,2.6,0.6,3.6,1.4
					c1.2,0.9,2.3,2,3.1,3.2L552.9,51V5.1c-0.1-2.5,1.9-4.5,4.3-4.5c0.1,0,0.1,0,0.2,0h8.4c1.2,0,2.4,0.4,3.2,1.3
					c0.9,0.9,1.3,2.1,1.3,3.4v61.2c0.1,2.5-1.9,4.5-4.3,4.5c-0.1,0-0.1,0-0.2,0h-16.4c-1.4,0-2.8-0.5-3.9-1.3
					c-1.3-0.9-2.4-2-3.2-3.2l-27.2-42.2v42.2c0.1,2.5-1.9,4.5-4.3,4.5c-0.1,0-0.1,0-0.2,0h-8.6c-1.2,0-2.4-0.4-3.2-1.3
					C497.9,68.9,497.4,67.7,497.4,66.4z"/>
				<path id="Path_4766" d="M580.9,53c-0.2-1.6,0.5-3.1,1.7-4.2c1-0.8,2.1-1.2,3.4-1.3h5.8c3,0,5.2,1.6,6.8,4.8
					c1.6,3.2,4.9,4.8,10.4,4.8l17.3,0.5c5.7,0,8.6-1.9,8.6-5.7c0-2.9-3.5-5.1-10.5-6.8c-3.1-0.8-6.6-1.4-10.4-2.2s-7.5-1.7-11.3-2.9
					c-3.5-1.1-7-2.4-10.4-3.9c-3-1.5-5.6-3.6-7.7-6.2c-2-2.7-3.1-6-3-9.4c0-6.6,2.3-11.7,7-15.2c4.7-3.6,12.7-5.3,24.2-5.3l12.5,0.3
					c6.4-0.1,12.8,1.7,18.2,5.2c5.5,3.4,8.1,7.8,8.1,13c0.2,1.6-0.5,3.1-1.7,4.2c-0.9,0.7-2.1,1.2-3.2,1.3h-6c-3,0-5.2-1.6-6.8-4.8
					c-1.6-3.2-4.9-4.8-10.4-4.8l-14.8-0.3c-5.7,0-8.6,1.9-8.6,5.7c0,2.1,1.8,3.8,5.5,5.1c4.3,1.5,8.8,2.6,13.3,3.4
					c5.2,1,10.4,2.2,15.6,3.6c4.9,1.3,9.5,3.7,13.4,6.9c3.5,3,5.5,7.4,5.5,12.1c0,6.6-2.3,11.7-7,15.2c-4.7,3.6-12.7,5.3-24.2,5.3
					L607,71.2c-6.4,0.1-12.8-1.7-18.2-5.2C583.5,62.5,580.9,58.2,580.9,53z"/>
				<path id="Path_4767" d="M663.3,66.4V5.1c0-1.2,0.5-2.4,1.4-3.2c0.9-0.9,2-1.3,3.2-1.3h56.7c1.2,0,2.4,0.5,3.2,1.4
					c0.9,0.9,1.3,2,1.3,3.2v4.7c0.1,2.5-1.9,4.5-4.3,4.5c-0.1,0-0.1,0-0.2,0h-42.9v14.3h36.9c2.5-0.1,4.5,1.9,4.5,4.3
					c0,0.1,0,0.1,0,0.2V38c0.1,2.5-1.9,4.5-4.3,4.5c-0.1,0-0.1,0-0.2,0h-36.9v14.6h42.8c2.5-0.1,4.5,1.9,4.5,4.3c0,0.1,0,0.1,0,0.2
					v4.7c0,1.2-0.5,2.4-1.4,3.2c-0.9,0.9-2,1.3-3.2,1.3h-56.5c-1.2,0-2.4-0.4-3.2-1.3C663.7,68.7,663.3,67.6,663.3,66.4z"/>
				<g id="Group_4935" transform="translate(112.045 0.391)">
					<path id="Path_4768" class="st0" d="M53.3,24.2L35,0l18.3,24.3V24.2z"/>
					<path id="Path_4769" class="st1" d="M53.3,24.3L35,0H0l53.3,71l17.5-23.7L53.3,24.2V24.3z"/>
					<path id="Path_4770" class="st2" d="M71.4,0L53.3,24.2l17.5,23.1L106.5,0L71.4,0z"/>
					<path id="Path_4771" class="st3" d="M56.2,20.4l-2.9,3.8l17.5,23.1l3.4-4.4L56.2,20.4z"/>
				</g>
			</g>
		</g>
		<g id="Group_4939" transform="translate(127.253 71.491)">
			<path id="Path_4772" class="st4" d="M38.1,23.3c-3.2,0-5.8,2.6-5.8,5.8c0,0,0,0,0,0v5.7h11.7v-5.7C43.9,25.9,41.4,23.3,38.1,23.3
				C38.1,23.3,38.1,23.3,38.1,23.3z"/>
			<path id="Path_4773" class="st4" d="M38.1,0C17.1,0,0,17.1,0,38.1s17.1,38.1,38.1,38.1s38.1-17.1,38.1-38.1c0,0,0,0,0,0
				C76.2,17.1,59.2,0,38.1,0C38.1,0,38.1,0,38.1,0z M54.6,54.1c0,2.4-1.9,4.3-4.3,4.3H25.9c-2.4,0-4.3-1.9-4.3-4.3V39.4
				c0-2.4,1.9-4.3,4.3-4.3h0.7v-5.7c0-6.4,5.2-11.6,11.6-11.6c6.4,0,11.6,5.2,11.6,11.6v5.7h0.6c2.3-0.1,4.2,1.7,4.3,4
				c0,0.1,0,0.2,0,0.3L54.6,54.1L54.6,54.1z"/>
			<g id="Group_4938" transform="translate(33.795 39.125)">
				<path id="Path_4774" class="st4" d="M0.1,3.5C0,3.4,0,3.3,0,3.1c0-0.2,0.2-0.4,0.4-0.5l2.5-2.1C3.3,0.2,3.8,0,4.3,0h1.4
					c0.5,0,0.9,0.4,0.9,0.9c0,0,0,0,0,0v12.5c0,0.2-0.1,0.5-0.3,0.7c-0.3,0.1-0.4,0.3-0.7,0.3H3.9c-0.5,0-0.9-0.4-0.9-0.9
					c0,0,0,0,0,0V3.6L1.8,4.5C1.7,4.7,1.6,4.7,1.3,4.7C1.2,4.7,1,4.5,0.9,4.4L0.1,3.5z"/>
			</g>
		</g>
	</g>
</g>
<g class="st5">
	<path class="st2" d="M268,139.5l-0.9-4.9c0-0.1,0-0.1-0.1-0.1c0,0-0.1,0-0.2,0h-7c-0.1,0-0.1,0-0.2,0c0,0-0.1,0.1-0.1,0.1l-0.9,4.9
		c0,0.3-0.2,0.4-0.5,0.4h-3.3c-0.1,0-0.3,0-0.3-0.1c-0.1-0.1-0.1-0.2-0.1-0.3l6.4-29.2c0.1-0.3,0.2-0.4,0.5-0.4h3.8
		c0.3,0,0.4,0.1,0.5,0.4l6.5,29.2v0.1c0,0.3-0.1,0.4-0.4,0.4h-3.4C268.2,139.9,268,139.8,268,139.5z M260.5,131.1h5.7
		c0.1,0,0.1-0.1,0.1-0.2l-2.9-15.3c0-0.1-0.1-0.1-0.1-0.1c0,0-0.1,0-0.1,0.1l-2.9,15.3C260.3,131.1,260.4,131.1,260.5,131.1z"/>
	<path class="st2" d="M282.9,121h-3c-0.1,0-0.2,0.1-0.2,0.2v12.1c0,1.1,0.2,1.9,0.6,2.4c0.4,0.4,1,0.7,1.9,0.6h0.4
		c0.3,0,0.4,0.1,0.4,0.4v2.8c0,0.3-0.1,0.4-0.4,0.4h-1.3c-1.8,0-3.2-0.4-4.1-1.1c-0.9-0.7-1.4-2.1-1.4-4.1v-13.5
		c0-0.1-0.1-0.2-0.2-0.2h-1.7c-0.3,0-0.4-0.1-0.4-0.4v-2.2c0-0.3,0.1-0.4,0.4-0.4h1.7c0.1,0,0.2-0.1,0.2-0.2V113
		c0-0.3,0.1-0.4,0.4-0.4h3.1c0.3,0,0.4,0.1,0.4,0.4v4.9c0,0.1,0.1,0.2,0.2,0.2h3c0.3,0,0.4,0.1,0.4,0.4v2.2
		C283.4,120.9,283.2,121,282.9,121z"/>
	<path class="st2" d="M294.8,121h-3c-0.1,0-0.2,0.1-0.2,0.2v12.1c0,1.1,0.2,1.9,0.6,2.4c0.4,0.4,1,0.7,1.9,0.6h0.4
		c0.3,0,0.4,0.1,0.4,0.4v2.8c0,0.3-0.1,0.4-0.4,0.4h-1.3c-1.8,0-3.2-0.4-4.1-1.1c-0.9-0.7-1.4-2.1-1.4-4.1v-13.5
		c0-0.1-0.1-0.2-0.2-0.2h-1.7c-0.3,0-0.4-0.1-0.4-0.4v-2.2c0-0.3,0.1-0.4,0.4-0.4h1.7c0.1,0,0.2-0.1,0.2-0.2V113
		c0-0.3,0.1-0.4,0.4-0.4h3.1c0.3,0,0.4,0.1,0.4,0.4v4.9c0,0.1,0.1,0.2,0.2,0.2h3c0.3,0,0.4,0.1,0.4,0.4v2.2
		C295.2,120.9,295,121,294.8,121z"/>
	<path class="st2" d="M310.7,119.6c1.3,1.3,2,3.1,2,5.2v14.6c0,0.3-0.1,0.4-0.4,0.4H309c-0.3,0-0.4-0.1-0.4-0.4v-0.9
		c0-0.1,0-0.1-0.1-0.1s-0.1,0-0.2,0c-1,1.2-2.5,1.8-4.4,1.8c-1.6,0-3.1-0.5-4.3-1.4c-1.2-0.9-1.9-2.6-1.9-5c0-2.5,0.8-4.3,2.3-5.5
		c1.5-1.2,3.5-1.7,5.9-1.7h2.5c0.1,0,0.2-0.1,0.2-0.2v-1.2c0-1.2-0.3-2.2-0.9-2.9c-0.6-0.7-1.3-1.1-2.2-1.1c-0.7,0-1.3,0.2-1.8,0.7
		c-0.5,0.5-0.8,1.1-0.9,1.9c0,0.3-0.1,0.4-0.4,0.4h-3.5c-0.3,0-0.4-0.1-0.4-0.4c0.1-1.8,0.9-3.3,2.2-4.5c1.3-1.1,3-1.7,4.9-1.7
		C307.6,117.7,309.3,118.3,310.7,119.6z M307.4,135.7c0.7-0.6,1.1-1.5,1.1-2.7v-2.9c0-0.1-0.1-0.2-0.2-0.2h-2.6
		c-1.1,0-2.1,0.3-2.8,0.9c-0.7,0.6-1,1.5-1,2.7c0,1,0.3,1.8,0.8,2.3c0.5,0.5,1.2,0.8,2.1,0.8C305.8,136.6,306.7,136.3,307.4,135.7z"
		/>
	<path class="st2" d="M318.3,138.4c-1.3-1.2-2-2.9-2-5v-8.9c0-2,0.7-3.7,2-4.9c1.3-1.3,3.1-1.9,5.3-1.9c1.5,0,2.7,0.3,3.8,0.8
		c1.1,0.6,1.9,1.3,2.5,2.3c0.6,1,0.9,2,0.9,3.2v0.6c0,0.3-0.1,0.4-0.4,0.4l-3.3,0.1c-0.3,0-0.4-0.1-0.4-0.4v-0.4
		c0-0.8-0.3-1.5-0.9-2.1c-0.6-0.6-1.3-0.9-2.2-0.9c-0.9,0-1.7,0.3-2.2,1c-0.6,0.7-0.9,1.5-0.9,2.5v8.4c0,1,0.3,1.9,0.9,2.5
		c0.6,0.7,1.3,1,2.2,1c0.9,0,1.6-0.3,2.2-0.9c0.6-0.6,0.9-1.3,0.9-2.2v-0.4c0-0.3,0.1-0.4,0.4-0.4l3.3,0c0.3,0,0.4,0.1,0.4,0.4v0.6
		c0,1.9-0.7,3.4-2,4.6c-1.3,1.2-3.1,1.8-5.3,1.8C321.4,140.2,319.6,139.6,318.3,138.4z"/>
	<path class="st2" d="M334.5,139.5v-29.2c0-0.3,0.1-0.4,0.4-0.4h3.3c0.3,0,0.4,0.1,0.4,0.4v16.3c0,0.1,0,0.1,0.1,0.2
		c0.1,0,0.1,0,0.1-0.1l5.5-8.3c0.1-0.2,0.3-0.3,0.5-0.3h3.4c0.2,0,0.3,0,0.3,0.2c0.1,0.1,0,0.2,0,0.4l-4.4,6.5
		c-0.1,0.1-0.1,0.2,0,0.3l5.2,14.1l0,0.2c0,0.2-0.1,0.3-0.4,0.3h-3.4c-0.3,0-0.4-0.1-0.5-0.3l-3.4-10.8c0-0.2-0.1-0.2-0.3,0
		l-2.6,3.7c-0.1,0.1-0.1,0.1-0.1,0.2v6.8c0,0.3-0.1,0.4-0.4,0.4h-3.3C334.6,139.9,334.5,139.7,334.5,139.5z"/>
	<path class="st2" d="M360.4,121h-3c-0.1,0-0.2,0.1-0.2,0.2v12.1c0,1.1,0.2,1.9,0.6,2.4c0.4,0.4,1,0.7,1.9,0.6h0.4
		c0.3,0,0.4,0.1,0.4,0.4v2.8c0,0.3-0.1,0.4-0.4,0.4h-1.3c-1.8,0-3.2-0.4-4.1-1.1c-0.9-0.7-1.4-2.1-1.4-4.1v-13.5
		c0-0.1-0.1-0.2-0.2-0.2h-1.7c-0.3,0-0.4-0.1-0.4-0.4v-2.2c0-0.3,0.1-0.4,0.4-0.4h1.7c0.1,0,0.2-0.1,0.2-0.2V113
		c0-0.3,0.1-0.4,0.4-0.4h3.1c0.3,0,0.4,0.1,0.4,0.4v4.9c0,0.1,0.1,0.2,0.2,0.2h3c0.3,0,0.4,0.1,0.4,0.4v2.2
		C360.8,120.9,360.7,121,360.4,121z"/>
	<path class="st2" d="M364.4,113.8c-0.5-0.5-0.8-1.2-0.8-2c0-0.8,0.3-1.5,0.8-2c0.5-0.5,1.2-0.8,2-0.8c0.8,0,1.5,0.3,2,0.8
		c0.5,0.5,0.8,1.2,0.8,2c0,0.8-0.3,1.5-0.8,2c-0.5,0.5-1.2,0.8-2,0.8C365.6,114.6,364.9,114.3,364.4,113.8z M364.3,139.5v-21
		c0-0.3,0.1-0.4,0.4-0.4h3.3c0.3,0,0.4,0.1,0.4,0.4v21c0,0.3-0.1,0.4-0.4,0.4h-3.3C364.5,139.9,364.3,139.7,364.3,139.5z"/>
	<path class="st2" d="M374.8,138.4c-1.3-1.2-2-2.9-2-5v-8.9c0-2,0.7-3.7,2-4.9c1.3-1.3,3.1-1.9,5.3-1.9c1.5,0,2.7,0.3,3.8,0.8
		s1.9,1.3,2.5,2.3c0.6,1,0.9,2,0.9,3.2v0.6c0,0.3-0.1,0.4-0.4,0.4l-3.3,0.1c-0.3,0-0.4-0.1-0.4-0.4v-0.4c0-0.8-0.3-1.5-0.9-2.1
		c-0.6-0.6-1.3-0.9-2.2-0.9c-0.9,0-1.7,0.3-2.2,1c-0.6,0.7-0.9,1.5-0.9,2.5v8.4c0,1,0.3,1.9,0.9,2.5c0.6,0.7,1.3,1,2.2,1
		c0.9,0,1.6-0.3,2.2-0.9c0.6-0.6,0.9-1.3,0.9-2.2v-0.4c0-0.3,0.1-0.4,0.4-0.4l3.3,0c0.3,0,0.4,0.1,0.4,0.4v0.6c0,1.9-0.7,3.4-2,4.6
		c-1.3,1.2-3.1,1.8-5.3,1.8C377.8,140.2,376.1,139.6,374.8,138.4z"/>
	<path class="st2" d="M403.1,119.6c1.3,1.3,2,3.1,2,5.2v14.6c0,0.3-0.1,0.4-0.4,0.4h-3.3c-0.3,0-0.4-0.1-0.4-0.4v-0.9
		c0-0.1,0-0.1-0.1-0.1s-0.1,0-0.2,0c-1,1.2-2.5,1.8-4.4,1.8c-1.6,0-3.1-0.5-4.3-1.4c-1.2-0.9-1.9-2.6-1.9-5c0-2.5,0.8-4.3,2.3-5.5
		c1.5-1.2,3.5-1.7,5.9-1.7h2.5c0.1,0,0.2-0.1,0.2-0.2v-1.2c0-1.2-0.3-2.2-0.9-2.9c-0.6-0.7-1.3-1.1-2.2-1.1c-0.7,0-1.3,0.2-1.8,0.7
		s-0.8,1.1-0.9,1.9c0,0.3-0.1,0.4-0.4,0.4h-3.5c-0.3,0-0.4-0.1-0.4-0.4c0.1-1.8,0.9-3.3,2.2-4.5c1.3-1.1,3-1.7,4.9-1.7
		C400.1,117.7,401.8,118.3,403.1,119.6z M399.9,135.7c0.7-0.6,1.1-1.5,1.1-2.7v-2.9c0-0.1-0.1-0.2-0.2-0.2h-2.6
		c-1.1,0-2.1,0.3-2.8,0.9c-0.7,0.6-1,1.5-1,2.7c0,1,0.3,1.8,0.8,2.3s1.2,0.8,2.1,0.8C398.3,136.6,399.2,136.3,399.9,135.7z"/>
	<path class="st2" d="M409.1,139.5v-29.2c0-0.3,0.1-0.4,0.4-0.4h3.3c0.3,0,0.4,0.1,0.4,0.4v29.2c0,0.3-0.1,0.4-0.4,0.4h-3.3
		C409.2,139.9,409.1,139.7,409.1,139.5z"/>
	<path class="st2" d="M428,138.1c-1.4-1.4-2.1-3.3-2.1-5.7v-15.3c0-2.4,0.7-4.2,2.1-5.6c1.4-1.4,3.3-2.1,5.6-2.1
		c2.3,0,4.2,0.7,5.7,2.1c1.4,1.4,2.1,3.3,2.1,5.6v0.7c0,0.3-0.1,0.4-0.4,0.4l-3.3,0.2c-0.3,0-0.4-0.1-0.4-0.4v-1.1
		c0-1.2-0.3-2.1-1-2.8c-0.7-0.7-1.6-1.1-2.6-1.1c-1.1,0-2,0.4-2.6,1.1c-0.7,0.7-1,1.7-1,2.8v15.8c0,1.2,0.3,2.1,1,2.8
		c0.7,0.7,1.5,1.1,2.6,1.1c1.1,0,2-0.4,2.6-1.1c0.7-0.7,1-1.7,1-2.8v-1.1c0-0.3,0.1-0.4,0.4-0.4l3.3,0.2c0.3,0,0.4,0.1,0.4,0.4v0.6
		c0,2.4-0.7,4.2-2.1,5.7s-3.3,2.1-5.7,2.1C431.3,140.2,429.4,139.5,428,138.1z"/>
	<path class="st2" d="M444.7,148.3c-0.1-0.1-0.1-0.2-0.1-0.3v-2.5c0-0.3,0.1-0.4,0.4-0.4c0.9,0,1.6-0.2,2.2-0.4
		c0.5-0.3,1-0.7,1.3-1.5c0.3-0.7,0.6-1.8,0.8-3.1l0-0.2l-5.5-21.3l0-0.1c0-0.2,0.1-0.3,0.4-0.3h3.5c0.3,0,0.4,0.1,0.5,0.4l3.1,15.5
		c0,0.1,0.1,0.1,0.1,0.1s0.1,0,0.1-0.1l3.1-15.5c0.1-0.3,0.2-0.4,0.5-0.4l3.6,0c0.1,0,0.3,0,0.3,0.1c0.1,0.1,0.1,0.2,0,0.3
		l-5.9,22.9c-0.5,2-1.1,3.4-1.6,4.4c-0.5,1-1.3,1.6-2.3,2c-1,0.4-2.3,0.6-4.1,0.6h-0.2C444.8,148.4,444.8,148.4,444.7,148.3z"/>
	<path class="st2" d="M474.7,119.5c1.1,1.2,1.6,2.9,1.6,5v8.9c0,2-0.6,3.7-1.7,4.9s-2.6,1.9-4.5,1.9c-0.7,0-1.4-0.1-2.1-0.4
		c-0.7-0.3-1.3-0.6-1.9-1.2c-0.1-0.1-0.1-0.1-0.2,0c0,0-0.1,0.1-0.1,0.1v0.7c0,0.3-0.1,0.4-0.4,0.4h-3.3c-0.3,0-0.4-0.1-0.4-0.4
		v-29.2c0-0.3,0.1-0.4,0.4-0.4h3.3c0.3,0,0.4,0.1,0.4,0.4v8.9c0,0.1,0,0.1,0.1,0.1c0.1,0,0.1,0,0.2-0.1c1.1-1,2.4-1.5,3.9-1.5
		C472.1,117.7,473.6,118.3,474.7,119.5z M471.4,122.2c-0.6-0.7-1.3-1-2.3-1c-0.9,0-1.6,0.3-2.2,1s-0.9,1.5-0.9,2.5v8.4
		c0,1,0.3,1.9,0.9,2.5s1.3,1,2.2,1c0.9,0,1.7-0.3,2.3-1c0.6-0.7,0.9-1.5,0.9-2.5v-8.4C472.3,123.7,472,122.9,471.4,122.2z"/>
	<path class="st2" d="M494.1,130.6h-9.7c-0.1,0-0.2,0.1-0.2,0.2v2.3c0,1,0.3,1.9,0.9,2.5c0.6,0.7,1.3,1,2.2,1c0.8,0,1.5-0.2,2-0.7
		c0.5-0.5,0.9-1.1,1-1.9c0.1-0.2,0.2-0.3,0.5-0.3l3.2,0.2c0.1,0,0.3,0,0.3,0.1c0.1,0.1,0.1,0.2,0.1,0.3c-0.2,1.9-0.9,3.3-2.1,4.4
		c-1.2,1-2.9,1.6-5,1.6c-2.2,0-4-0.6-5.3-1.8c-1.3-1.2-2-2.9-2-4.9v-8.9c0-2,0.7-3.7,2-4.9c1.3-1.3,3.1-1.9,5.3-1.9
		c2.2,0,4,0.6,5.3,1.9s1.9,2.9,1.9,4.9v5.7C494.5,130.5,494.4,130.6,494.1,130.6z M485.1,122.2c-0.6,0.7-0.9,1.5-0.9,2.5v2.3
		c0,0.1,0.1,0.2,0.2,0.2h5.9c0.1,0,0.2-0.1,0.2-0.2v-2.3c0-1-0.3-1.9-0.9-2.5s-1.3-1-2.3-1C486.4,121.2,485.7,121.6,485.1,122.2z"/>
	<path class="st2" d="M508.6,118.3c0.2,0.1,0.3,0.3,0.2,0.6l-0.6,3.3c0,0.3-0.2,0.3-0.5,0.3c-0.4-0.1-0.8-0.2-1.2-0.2
		c-0.2,0-0.4,0-0.8,0.1c-0.9,0.1-1.6,0.6-2.2,1.5c-0.6,0.9-0.9,2-0.9,3.2v12.6c0,0.3-0.1,0.4-0.4,0.4h-3.3c-0.3,0-0.4-0.1-0.4-0.4
		v-21c0-0.3,0.1-0.4,0.4-0.4h3.3c0.3,0,0.4,0.1,0.4,0.4v2.5c0,0.1,0,0.1,0.1,0.2c0,0,0.1,0,0.1-0.1c0.8-2.1,2.2-3.2,4-3.2
		C507.4,117.8,508,117.9,508.6,118.3z"/>
	<path class="st2" d="M512.6,138.6c-1.2-1-1.9-2.5-1.9-4.2V134c0-0.3,0.1-0.4,0.4-0.4h3.1c0.3,0,0.4,0.1,0.4,0.4v0.3
		c0,0.8,0.3,1.4,0.9,2c0.6,0.5,1.3,0.8,2.2,0.8c0.9,0,1.6-0.3,2.1-0.8c0.5-0.5,0.8-1.2,0.8-2c0-0.6-0.2-1.2-0.6-1.6
		c-0.4-0.4-0.8-0.8-1.3-1c-0.5-0.2-1.3-0.6-2.3-1c-1.1-0.5-2-1-2.8-1.4c-0.7-0.5-1.4-1.1-2-2c-0.6-0.9-0.9-1.9-0.9-3.3
		c0-1.9,0.6-3.5,1.8-4.6c1.2-1.1,2.9-1.6,4.9-1.6c2.1,0,3.8,0.6,5,1.7c1.2,1.1,1.8,2.6,1.8,4.6v0.1c0,0.3-0.1,0.4-0.4,0.4h-3
		c-0.3,0-0.4-0.1-0.4-0.4v-0.3c0-0.8-0.3-1.4-0.8-2c-0.5-0.5-1.2-0.8-2.1-0.8c-0.9,0-1.6,0.3-2.1,0.8s-0.8,1.2-0.8,2
		c0,0.6,0.2,1.1,0.5,1.5c0.3,0.4,0.8,0.7,1.2,1c0.5,0.2,1.3,0.6,2.3,1.1c1.2,0.5,2.2,1,2.9,1.5c0.8,0.5,1.5,1.1,2,2
		c0.6,0.9,0.9,1.9,0.9,3.2c0,1.9-0.6,3.3-1.9,4.4c-1.3,1.1-3,1.6-5.2,1.6C515.6,140.2,513.9,139.6,512.6,138.6z"/>
	<path class="st2" d="M541.8,130.6H532c-0.1,0-0.2,0.1-0.2,0.2v2.3c0,1,0.3,1.9,0.9,2.5c0.6,0.7,1.3,1,2.2,1c0.8,0,1.5-0.2,2-0.7
		c0.5-0.5,0.9-1.1,1-1.9c0.1-0.2,0.2-0.3,0.5-0.3l3.2,0.2c0.1,0,0.3,0,0.3,0.1s0.1,0.2,0.1,0.3c-0.2,1.9-0.9,3.3-2.1,4.4
		c-1.2,1-2.9,1.6-5,1.6c-2.2,0-4-0.6-5.3-1.8c-1.3-1.2-2-2.9-2-4.9v-8.9c0-2,0.7-3.7,2-4.9c1.3-1.3,3.1-1.9,5.3-1.9
		c2.2,0,4,0.6,5.3,1.9c1.3,1.3,1.9,2.9,1.9,4.9v5.7C542.2,130.5,542,130.6,541.8,130.6z M532.7,122.2c-0.6,0.7-0.9,1.5-0.9,2.5v2.3
		c0,0.1,0.1,0.2,0.2,0.2h5.9c0.1,0,0.2-0.1,0.2-0.2v-2.3c0-1-0.3-1.9-0.9-2.5c-0.6-0.7-1.3-1-2.3-1
		C534,121.2,533.3,121.6,532.7,122.2z"/>
	<path class="st2" d="M547.6,138.4c-1.3-1.2-2-2.9-2-5v-8.9c0-2,0.7-3.7,2-4.9c1.3-1.3,3.1-1.9,5.3-1.9c1.5,0,2.7,0.3,3.8,0.8
		c1.1,0.6,1.9,1.3,2.5,2.3c0.6,1,0.9,2,0.9,3.2v0.6c0,0.3-0.1,0.4-0.4,0.4l-3.3,0.1c-0.3,0-0.4-0.1-0.4-0.4v-0.4
		c0-0.8-0.3-1.5-0.9-2.1c-0.6-0.6-1.3-0.9-2.2-0.9c-0.9,0-1.7,0.3-2.2,1s-0.9,1.5-0.9,2.5v8.4c0,1,0.3,1.9,0.9,2.5s1.3,1,2.2,1
		c0.9,0,1.6-0.3,2.2-0.9c0.6-0.6,0.9-1.3,0.9-2.2v-0.4c0-0.3,0.1-0.4,0.4-0.4l3.3,0c0.3,0,0.4,0.1,0.4,0.4v0.6c0,1.9-0.7,3.4-2,4.6
		s-3.1,1.8-5.3,1.8C550.7,140.2,548.9,139.6,547.6,138.4z"/>
	<path class="st2" d="M574.2,118h3.3c0.3,0,0.4,0.1,0.4,0.4v21c0,0.3-0.1,0.4-0.4,0.4h-3.3c-0.3,0-0.4-0.1-0.4-0.4v-1.2
		c0-0.1,0-0.1-0.1-0.1s-0.1,0-0.2,0.1c-0.9,1.3-2.2,2-4.1,2c-1.7,0-3.1-0.5-4.2-1.6c-1.1-1-1.6-2.6-1.6-4.8v-15.4
		c0-0.3,0.1-0.4,0.4-0.4h3.3c0.3,0,0.4,0.1,0.4,0.4v14.5c0,2.5,1,3.7,2.9,3.7c1,0,1.7-0.4,2.3-1.1c0.5-0.7,0.8-1.7,0.8-2.9v-14.2
		C573.7,118.1,573.9,118,574.2,118z"/>
	<path class="st2" d="M592.5,118.3c0.2,0.1,0.3,0.3,0.2,0.6l-0.6,3.3c0,0.3-0.2,0.3-0.5,0.3c-0.4-0.1-0.8-0.2-1.2-0.2
		c-0.2,0-0.4,0-0.8,0.1c-0.9,0.1-1.6,0.6-2.2,1.5c-0.6,0.9-0.9,2-0.9,3.2v12.6c0,0.3-0.1,0.4-0.4,0.4h-3.3c-0.3,0-0.4-0.1-0.4-0.4
		v-21c0-0.3,0.1-0.4,0.4-0.4h3.3c0.3,0,0.4,0.1,0.4,0.4v2.5c0,0.1,0,0.1,0.1,0.2c0,0,0.1,0,0.1-0.1c0.8-2.1,2.2-3.2,4-3.2
		C591.4,117.8,592,117.9,592.5,118.3z"/>
	<path class="st2" d="M595.8,113.8c-0.5-0.5-0.8-1.2-0.8-2c0-0.8,0.3-1.5,0.8-2c0.5-0.5,1.2-0.8,2-0.8c0.8,0,1.5,0.3,2,0.8
		s0.8,1.2,0.8,2c0,0.8-0.3,1.5-0.8,2c-0.5,0.5-1.2,0.8-2,0.8C596.9,114.6,596.3,114.3,595.8,113.8z M595.7,139.5v-21
		c0-0.3,0.1-0.4,0.4-0.4h3.3c0.3,0,0.4,0.1,0.4,0.4v21c0,0.3-0.1,0.4-0.4,0.4h-3.3C595.9,139.9,595.7,139.7,595.7,139.5z"/>
	<path class="st2" d="M612.7,121h-3c-0.1,0-0.2,0.1-0.2,0.2v12.1c0,1.1,0.2,1.9,0.6,2.4c0.4,0.4,1,0.7,1.9,0.6h0.4
		c0.3,0,0.4,0.1,0.4,0.4v2.8c0,0.3-0.1,0.4-0.4,0.4h-1.3c-1.8,0-3.2-0.4-4.1-1.1c-0.9-0.7-1.4-2.1-1.4-4.1v-13.5
		c0-0.1-0.1-0.2-0.2-0.2h-1.7c-0.3,0-0.4-0.1-0.4-0.4v-2.2c0-0.3,0.1-0.4,0.4-0.4h1.7c0.1,0,0.2-0.1,0.2-0.2V113
		c0-0.3,0.1-0.4,0.4-0.4h3.1c0.3,0,0.4,0.1,0.4,0.4v4.9c0,0.1,0.1,0.2,0.2,0.2h3c0.3,0,0.4,0.1,0.4,0.4v2.2
		C613.1,120.9,613,121,612.7,121z"/>
	<path class="st2" d="M615.8,148.3c-0.1-0.1-0.1-0.2-0.1-0.3v-2.5c0-0.3,0.1-0.4,0.4-0.4c0.9,0,1.6-0.2,2.2-0.4
		c0.5-0.3,1-0.7,1.3-1.5s0.6-1.8,0.8-3.1l0-0.2l-5.5-21.3l0-0.1c0-0.2,0.1-0.3,0.4-0.3h3.5c0.3,0,0.4,0.1,0.5,0.4l3.1,15.5
		c0,0.1,0.1,0.1,0.1,0.1c0,0,0.1,0,0.1-0.1l3.1-15.5c0.1-0.3,0.2-0.4,0.5-0.4l3.6,0c0.1,0,0.2,0,0.3,0.1s0.1,0.2,0,0.3l-5.9,22.9
		c-0.5,2-1.1,3.4-1.6,4.4c-0.5,1-1.3,1.6-2.3,2c-1,0.4-2.3,0.6-4.1,0.6H616C615.9,148.4,615.9,148.4,615.8,148.3z"/>
	<path class="st2" d="M643.1,138.1c-1.4-1.4-2.1-3.3-2.1-5.6v-1.1c0-0.3,0.1-0.4,0.4-0.4h3.2c0.3,0,0.4,0.1,0.4,0.4v0.9
		c0,1.3,0.3,2.4,1,3.2c0.7,0.8,1.5,1.2,2.5,1.2c1,0,1.9-0.4,2.6-1.1c0.7-0.8,1-1.8,1-3c0-0.8-0.2-1.6-0.5-2.2
		c-0.4-0.6-0.8-1.2-1.4-1.7s-1.5-1.2-2.9-2.2c-1.5-1.1-2.6-2-3.4-2.8c-0.8-0.8-1.5-1.7-2.1-2.8c-0.6-1.1-0.9-2.4-0.9-3.8
		c0-2.3,0.7-4.2,2.1-5.5s3.2-2,5.4-2c2.3,0,4.1,0.7,5.5,2.2c1.4,1.5,2.1,3.4,2.1,5.8v1.1c0,0.3-0.1,0.4-0.4,0.4h-3.2
		c-0.3,0-0.4-0.1-0.4-0.4v-1.2c0-1.3-0.3-2.3-1-3.1c-0.7-0.8-1.5-1.2-2.6-1.2c-1,0-1.8,0.4-2.5,1.1c-0.6,0.7-0.9,1.7-0.9,2.9
		c0,1.1,0.3,2.1,0.9,2.9c0.6,0.8,1.8,1.8,3.7,3.2c1.7,1.3,3,2.3,3.9,3.1c0.9,0.8,1.5,1.7,2,2.6c0.5,1,0.7,2.1,0.7,3.4
		c0,2.4-0.7,4.3-2.1,5.8c-1.4,1.4-3.2,2.2-5.5,2.2C646.3,140.2,644.5,139.5,643.1,138.1z"/>
	<path class="st2" d="M673.6,130.6h-9.7c-0.1,0-0.2,0.1-0.2,0.2v2.3c0,1,0.3,1.9,0.9,2.5s1.3,1,2.2,1c0.8,0,1.5-0.2,2-0.7
		c0.5-0.5,0.9-1.1,1-1.9c0.1-0.2,0.2-0.3,0.5-0.3l3.2,0.2c0.1,0,0.2,0,0.3,0.1c0.1,0.1,0.1,0.2,0.1,0.3c-0.2,1.9-0.9,3.3-2.1,4.4
		c-1.2,1-2.9,1.6-5,1.6c-2.2,0-4-0.6-5.3-1.8c-1.3-1.2-2-2.9-2-4.9v-8.9c0-2,0.7-3.7,2-4.9c1.3-1.3,3.1-1.9,5.3-1.9
		c2.2,0,4,0.6,5.3,1.9c1.3,1.3,1.9,2.9,1.9,4.9v5.7C674,130.5,673.9,130.6,673.6,130.6z M664.6,122.2c-0.6,0.7-0.9,1.5-0.9,2.5v2.3
		c0,0.1,0.1,0.2,0.2,0.2h5.9c0.1,0,0.2-0.1,0.2-0.2v-2.3c0-1-0.3-1.9-0.9-2.5c-0.6-0.7-1.3-1-2.3-1
		C665.9,121.2,665.1,121.6,664.6,122.2z"/>
	<path class="st2" d="M690.8,119.5c1,1.2,1.4,2.9,1.4,5.2v14.7c0,0.3-0.1,0.4-0.4,0.4h-3.3c-0.3,0-0.4-0.1-0.4-0.4v-14.4
		c0-1.2-0.3-2.1-0.8-2.8s-1.2-1-2.2-1c-0.9,0-1.7,0.3-2.2,1c-0.5,0.6-0.8,1.6-0.9,2.7c0,0.2,0,0.3,0,0.3v14.2c0,0.3-0.1,0.4-0.4,0.4
		h-3.3c-0.3,0-0.4-0.1-0.4-0.4v-21c0-0.3,0.1-0.4,0.4-0.4h3.3c0.3,0,0.4,0.1,0.4,0.4v1.2c0,0.1,0,0.1,0.1,0.1c0.1,0,0.1,0,0.2-0.1
		c1-1.3,2.5-1.9,4.3-1.9C688.4,117.7,689.8,118.3,690.8,119.5z"/>
	<path class="st2" d="M697.6,138.6c-1.2-1-1.9-2.5-1.9-4.2V134c0-0.3,0.1-0.4,0.4-0.4h3.1c0.3,0,0.4,0.1,0.4,0.4v0.3
		c0,0.8,0.3,1.4,0.9,2c0.6,0.5,1.3,0.8,2.2,0.8c0.9,0,1.6-0.3,2.1-0.8c0.5-0.5,0.8-1.2,0.8-2c0-0.6-0.2-1.2-0.6-1.6
		c-0.4-0.4-0.8-0.8-1.3-1c-0.5-0.2-1.3-0.6-2.3-1c-1.1-0.5-2-1-2.8-1.4c-0.7-0.5-1.4-1.1-2-2c-0.6-0.9-0.9-1.9-0.9-3.3
		c0-1.9,0.6-3.5,1.8-4.6c1.2-1.1,2.9-1.6,4.9-1.6c2.1,0,3.8,0.6,5,1.7s1.8,2.6,1.8,4.6v0.1c0,0.3-0.1,0.4-0.4,0.4h-3
		c-0.3,0-0.4-0.1-0.4-0.4v-0.3c0-0.8-0.3-1.4-0.8-2s-1.2-0.8-2.1-0.8c-0.9,0-1.6,0.3-2.1,0.8c-0.5,0.5-0.8,1.2-0.8,2
		c0,0.6,0.2,1.1,0.5,1.5c0.3,0.4,0.8,0.7,1.2,1c0.5,0.2,1.3,0.6,2.3,1.1c1.2,0.5,2.2,1,2.9,1.5c0.8,0.5,1.5,1.1,2,2
		c0.6,0.9,0.9,1.9,0.9,3.2c0,1.9-0.6,3.3-1.9,4.4c-1.3,1.1-3,1.6-5.2,1.6C700.5,140.2,698.8,139.6,697.6,138.6z"/>
	<path class="st2" d="M726.7,130.6H717c-0.1,0-0.2,0.1-0.2,0.2v2.3c0,1,0.3,1.9,0.9,2.5c0.6,0.7,1.3,1,2.2,1c0.8,0,1.5-0.2,2-0.7
		c0.5-0.5,0.9-1.1,1-1.9c0.1-0.2,0.2-0.3,0.5-0.3l3.2,0.2c0.1,0,0.3,0,0.3,0.1c0.1,0.1,0.1,0.2,0.1,0.3c-0.2,1.9-0.9,3.3-2.1,4.4
		c-1.2,1-2.9,1.6-5,1.6c-2.2,0-4-0.6-5.3-1.8c-1.3-1.2-2-2.9-2-4.9v-8.9c0-2,0.7-3.7,2-4.9c1.3-1.3,3.1-1.9,5.3-1.9
		c2.2,0,4,0.6,5.3,1.9s1.9,2.9,1.9,4.9v5.7C727.2,130.5,727,130.6,726.7,130.6z M717.7,122.2c-0.6,0.7-0.9,1.5-0.9,2.5v2.3
		c0,0.1,0.1,0.2,0.2,0.2h5.9c0.1,0,0.2-0.1,0.2-0.2v-2.3c0-1-0.3-1.9-0.9-2.5s-1.3-1-2.3-1C719,121.2,718.3,121.6,717.7,122.2z"/>
</g>
</svg>
